<?xml version="1.0" encoding="UTF-8"?>
<svg id="Layer_1" data-name="Layer 1" xmlns="http://www.w3.org/2000/svg" viewBox="0 0 399.42 110.78">
  <defs>
    <style>
      .cls-1 {
        fill: #fff;
      }
    </style>
  </defs>
  <polygon class="cls-1" points="152.02 77.3 149.35 87.02 148.87 87.02 146.06 77.3 133.26 35.05 116.9 35.05 104.3 77.36 101.42 87.02 100.94 87.02 98.21 77.3 86.22 35.05 67.71 35.05 67.6 35.05 44.78 35.05 18.9 62.06 18.9 6.92 0 6.92 0 108.38 18.9 108.38 18.9 84.97 28.06 75.6 49.77 108.38 71.68 108.38 40.87 62.5 67.63 35.14 91.36 108.38 108.06 108.38 121.42 66.21 124.29 56.28 124.84 56.28 127.78 66.21 141.47 108.38 158.04 108.38 181.66 35.05 164.07 35.05 152.02 77.3"/>
  <path class="cls-1" d="M194.12,0c-3.1,0-5.79,1.05-8.04,3.15-2.26,2.1-3.39,4.72-3.39,7.87s1.13,5.71,3.39,7.94c2.26,2.24,4.94,3.35,8.04,3.35s5.85-1.12,7.98-3.35c2.12-2.24,3.18-4.88,3.18-7.94s-1.05-5.83-3.15-7.91c-2.1-2.08-4.77-3.12-8.01-3.12Z"/>
  <rect class="cls-1" x="184.54" y="35.05" width="18.9" height="73.33"/>
  <path class="cls-1" d="M251.46,94.62c-1.51.46-2.99.68-4.45.68-3.06,0-5.27-.75-6.64-2.26-1.37-1.51-2.05-3.81-2.05-6.92v-35.88h19.17v-15.2h-19.17v-18.42h-18.9v18.42h-12.67v15.2h12.67v37.59c0,7.62,2.02,13.35,6.06,17.18,4.04,3.83,9.62,5.75,16.74,5.75,3.51,0,6.74-.41,9.69-1.23,2.94-.82,5.95-2.1,9-3.83l-4.25-13.28c-1.96,1-3.7,1.74-5.2,2.19Z"/>
  <path class="cls-1" d="M298.01,32.79c-12.6,0-22.47,3.82-29.61,11.47-7.14,7.65-10.71,16.88-10.71,27.69,0,11.73,3.67,21.13,11.02,28.21,7.35,7.08,17.09,10.61,29.23,10.61,7.67,0,14.15-1.18,19.44-3.53,5.29-2.35,10.02-5.79,14.17-10.3l-10.34-10.41c-3.06,3.15-6.34,5.52-9.86,7.12-3.52,1.6-7.44,2.4-11.78,2.4-6.67,0-12.13-2.04-16.4-6.13-2.94-2.81-4.84-6.61-5.76-11.34l56.39-.06c.27-2.05.45-3.82.51-5.31.07-1.48.1-3.05.1-4.69,0-10.45-3.41-19.02-10.24-25.71-6.82-6.69-15.55-10.03-26.19-10.03ZM316.5,63.81h-38.87c.94-3.95,2.65-7.23,5.15-9.86,3.99-4.2,9.05-6.3,15.17-6.3,5.66,0,10.06,1.54,13.21,4.62,3.15,3.08,4.93,6.9,5.34,11.47v.07Z"/>
  <path class="cls-1" d="M376.52,38.07c2.3-1.73,3.46-4.2,3.46-7.39s-1.05-5.77-3.15-7.6c-2.1-1.83-5.04-2.74-8.83-2.74h-12.25v31.08h7.67v-10.75h2.48l7.99,10.75h8.83l-9.05-11.72c1-.41,1.96-.95,2.86-1.63ZM363.41,27.11h3.9c1.51,0,2.66.31,3.46.92.8.62,1.2,1.61,1.2,2.98,0,1.46-.41,2.5-1.23,3.11s-1.94.92-3.35.92h-3.97v-7.94Z"/>
  <path class="cls-1" d="M390.14,13.62c-6.18-6.12-13.75-9.17-22.7-9.17s-16.51,3.06-22.7,9.17c-6.18,6.12-9.28,13.6-9.28,22.46s3.09,16.26,9.28,22.35c6.18,6.09,13.75,9.14,22.7,9.14s16.51-3.05,22.7-9.14c6.18-6.09,9.28-13.57,9.28-22.42s-3.09-16.27-9.28-22.39ZM384.7,53.44c-4.7,4.72-10.45,7.09-17.25,7.09s-12.61-2.36-17.29-7.09c-4.68-4.72-7.02-10.51-7.02-17.36s2.34-12.7,7.02-17.42c4.68-4.72,10.44-7.09,17.29-7.09s12.55,2.36,17.25,7.09c4.7,4.72,7.05,10.51,7.05,17.36s-2.35,12.7-7.05,17.42Z"/>
</svg>